<?xml version="1.0" encoding="utf-8"?>
<!-- Generator: Adobe Illustrator 18.1.1, SVG Export Plug-In . SVG Version: 6.00 Build 0)  -->
<svg version="1.1" id="Layer_1" xmlns="http://www.w3.org/2000/svg" xmlns:xlink="http://www.w3.org/1999/xlink" x="0px" y="0px"
	 viewBox="0 0 200 200" enable-background="new 0 0 200 200" xml:space="preserve">
<g>
	<g>
		<path fill="#FFFFFF" d="M10.3,59.8C24.9,74.4,39.5,89,54.1,103.6c23.3,23.3,46.6,46.6,69.9,69.9c5.4,5.4,10.8,10.8,16.2,16.2
			c13,13,36.7,13.9,49.5,0c12.8-14,13.8-35.7,0-49.5c-14.6-14.6-29.2-29.2-43.8-43.8C122.6,73.1,99.3,49.8,76,26.5
			c-5.4-5.4-10.8-10.8-16.2-16.2c-13-13-36.7-13.9-49.5,0C-2.5,24.3-3.5,46,10.3,59.8L10.3,59.8z"/>
	</g>
</g>
<g>
	<g>
		<path fill="#FFFFFF" d="M59.6,189.9c14.7-14.7,29.3-29.3,44-44c23.4-23.4,46.8-46.8,70.2-70.2c5.4-5.4,10.8-10.8,16.2-16.2
			c13-13,13.9-36.7,0-49.5c-14-12.8-35.7-13.8-49.5,0c-14.7,14.7-29.3,29.3-44,44C73,77.5,49.7,100.9,26.3,124.2
			c-5.4,5.4-10.8,10.8-16.2,16.2c-13,13-13.9,36.7,0,49.5C24.1,202.7,45.7,203.8,59.6,189.9L59.6,189.9z"/>
	</g>
</g>
</svg>
