<?xml version="1.0" encoding="utf-8"?>
<!-- Generator: Adobe Illustrator 18.1.1, SVG Export Plug-In . SVG Version: 6.00 Build 0)  -->
<svg version="1.1" id="Layer_1" xmlns="http://www.w3.org/2000/svg" xmlns:xlink="http://www.w3.org/1999/xlink" x="0px" y="0px"
	 viewBox="0 0 120.5 200" enable-background="new 0 0 120.5 200" xml:space="preserve">
<g>
	<path fill="#7779b5" d="M6.4,35.1c23.2,23.2,46.5,46.5,69.7,69.7c3.3,3.3,6.5,6.5,9.8,9.8c7.4,7.4,21,8,28.3,0
		c7.3-8,7.9-20.4,0-28.3C90.9,63.1,67.7,39.9,44.4,16.6c-3.3-3.3-6.5-6.5-9.8-9.8c-7.4-7.4-21-8-28.3,0C-1,14.8-1.5,27.2,6.4,35.1
		L6.4,35.1z"/>
</g>
<g>
	<path fill="#7779b5" d="M85.4,86.4c-23.2,23.2-46.5,46.5-69.7,69.7c-3.3,3.3-6.5,6.5-9.8,9.8c-7.4,7.4-8,21,0,28.3
		c8,7.3,20.4,7.9,28.3,0c23.2-23.2,46.5-46.5,69.7-69.7c3.3-3.3,6.5-6.5,9.8-9.8c7.4-7.4,8-21,0-28.3C105.7,79,93.3,78.5,85.4,86.4
		L85.4,86.4z"/>
</g>
</svg>
